<?xml version="1.0" standalone="no"?><!DOCTYPE svg PUBLIC "-//W3C//DTD SVG 1.1//EN" "http://www.w3.org/Graphics/SVG/1.1/DTD/svg11.dtd"><svg t="1622395632344" class="icon" viewBox="0 0 1024 1024" version="1.1" xmlns="http://www.w3.org/2000/svg" p-id="6319" xmlns:xlink="http://www.w3.org/1999/xlink" width="32" height="32"><defs><style type="text/css"></style></defs><path d="M611.328 853.376c-2.816 0-5.76-0.128-8.704-0.384-37.504-3.712-66.944-30.208-75.136-67.584l-114.432-528.768-117.888 272.256c-6.784 15.616-22.144 25.728-39.168 25.728H128c-23.552 0-42.624-19.072-42.624-42.624s19.072-42.624 42.624-42.624h99.968l106.88-247.04c15.104-34.816 48.512-55.04 86.4-51.328 37.504 3.712 66.944 30.208 75.136 67.584l114.432 528.768 117.888-272.256c6.784-15.616 22.144-25.728 39.168-25.728h128c23.552 0 42.624 19.072 42.624 42.624s-19.072 42.624-42.624 42.624h-99.968l-106.88 246.912c-13.952 32.256-43.776 51.84-77.696 51.84" fill="#ffffff" p-id="6320"></path></svg>