<?xml version="1.0" standalone="no"?><!DOCTYPE svg PUBLIC "-//W3C//DTD SVG 1.1//EN" "http://www.w3.org/Graphics/SVG/1.1/DTD/svg11.dtd"><svg t="1622378165958" class="icon" viewBox="0 0 1024 1024" version="1.1" xmlns="http://www.w3.org/2000/svg" p-id="6106" width="16" height="16" xmlns:xlink="http://www.w3.org/1999/xlink"><defs><style type="text/css"></style></defs><path d="M170.667 85.333h682.667q53 0 90.5 37.5t37.5 90.5V640q0 53-37.5 90.5t-90.5 37.5H746.667l-64-85.333h170.667q17.667 0 30.167-12.5t12.5-30.167V213.333q0-17.667-12.5-30.167t-30.167-12.5H170.667q-17.667 0-30.167 12.5T128 213.333V640q0 17.667 12.5 30.167t30.167 12.5h170.667l-64 85.333H170.667q-53 0-90.5-37.5t-37.5-90.5V213.333q0-53 37.5-90.5t90.5-37.5z m426.666 768L512 739.666l-85.333 113.667h170.667zM256 938.667l256-341.333 256 341.333H256z" p-id="6107" fill="#ffffff"></path></svg>