<?xml version="1.0" standalone="no"?><!DOCTYPE svg PUBLIC "-//W3C//DTD SVG 1.1//EN" "http://www.w3.org/Graphics/SVG/1.1/DTD/svg11.dtd"><svg t="1622395346156" class="icon" viewBox="0 0 1024 1024" version="1.1" xmlns="http://www.w3.org/2000/svg" p-id="3553" xmlns:xlink="http://www.w3.org/1999/xlink" width="32" height="32"><defs><style type="text/css"></style></defs><path d="M987.591111 585.386667h-109.795555V438.613333h109.795555a36.408889 36.408889 0 0 0 0-72.817777h-109.795555V267.946667a122.88 122.88 0 0 0-121.742223-121.742223h-97.848889V36.408889a36.408889 36.408889 0 0 0-72.817777 0v109.795555H438.613333V36.408889a36.408889 36.408889 0 0 0-72.817777 0v109.795555H267.946667a122.88 122.88 0 0 0-121.742223 121.742223v97.848889H36.408889a36.408889 36.408889 0 0 0 0 72.817777h109.795555v146.773334H36.408889a36.408889 36.408889 0 0 0-36.408889 36.408889 36.408889 36.408889 0 0 0 36.408889 36.408888h109.795555v97.848889a122.88 122.88 0 0 0 121.742223 121.742223h97.848889v109.795555a36.408889 36.408889 0 0 0 72.817777 0v-109.795555h146.773334v109.795555a36.408889 36.408889 0 0 0 72.817777 0v-109.795555h97.848889a122.88 122.88 0 0 0 121.742223-121.742223v-97.848889h109.795555a36.408889 36.408889 0 0 0 36.408889-36.408888 36.408889 36.408889 0 0 0-36.408889-36.408889z m-183.182222 170.666666a48.924444 48.924444 0 0 1-48.355556 48.355556H267.946667a48.924444 48.924444 0 0 1-48.355556-48.355556V267.946667a48.924444 48.924444 0 0 1 48.355556-48.355556h488.106666a48.924444 48.924444 0 0 1 48.355556 48.355556z m-195.128889-390.257777H414.72a48.355556 48.355556 0 0 0-48.924444 48.924444v194.56a48.355556 48.355556 0 0 0 48.924444 48.924444h194.56a48.355556 48.355556 0 0 0 48.924444-48.924444V414.72a48.355556 48.355556 0 0 0-48.924444-48.924444z m-23.893333 219.591111H438.613333V438.613333h146.773334z" p-id="3554" fill="#ffffff"></path></svg>