<?xml version="1.0" standalone="no"?><!DOCTYPE svg PUBLIC "-//W3C//DTD SVG 1.1//EN" "http://www.w3.org/Graphics/SVG/1.1/DTD/svg11.dtd"><svg t="1622395684849" class="icon" viewBox="0 0 1024 1024" version="1.1" xmlns="http://www.w3.org/2000/svg" p-id="8181" xmlns:xlink="http://www.w3.org/1999/xlink" width="32" height="32"><defs><style type="text/css"></style></defs><path d="M889.263158 600.926316c0-29.965474-11.749053-56.400842-31.528421-74.671158 19.833263-45.810526 30.989474-96.202105 30.989474-149.261474C888.724211 169.121684 719.602526 0 511.730526 0S134.736842 169.121684 134.736842 376.993684c0 124.496842 60.820211 234.927158 154.165895 303.616a120.805053 120.805053 0 0 0 17.246316 43.600842 24844.719158 24844.719158 0 0 0 110.160842 166.858106c38.534737 57.667368 94.234947 93.480421 165.618526 106.522947 9.000421 1.562947 17.246316 2.640842 25.141895 3.664842l11.425684 1.562947c2.964211 0.431158 6.009263 0.646737 9.027368 0.646737h42.576843c3.368421 0 6.736842-0.269474 10.051368-0.808421l11.237053-1.778526c6.467368-0.997053 12.934737-2.021053 19.34821-3.098947 90.192842-15.548632 158.261895-83.375158 173.541053-172.894316 3.098947-17.893053 4.715789-36.001684 4.769684-53.706106 0.215579-67.179789 0.215579-75.614316 0.215579-102.750315V600.926316zM197.605053 376.993684c0-173.514105 140.665263-314.125474 314.125473-314.125473 173.487158 0 314.152421 140.611368 314.152421 314.125473a312.589474 312.589474 0 0 1-25.6 123.904 92.483368 92.483368 0 0 0-35.301052 3.152842 95.690105 95.690105 0 0 0-34.654316-21.018947 117.571368 117.571368 0 0 0-6.521263-1.913263 233.822316 233.822316 0 0 0 21.611789-67.961263 234.388211 234.388211 0 0 0-26.677894-150.474106 20.965053 20.965053 0 0 0-36.648422 20.291369 192.619789 192.619789 0 0 1 21.881264 123.769263 191.811368 191.811368 0 0 1-27.782737 73.674105c-1.266526 0.296421-2.56 0.458105-3.772632 0.781474a105.283368 105.283368 0 0 0-30.800842-19.402105 63.002947 63.002947 0 0 0-29.426526-7.329685h-2.101895l-0.026947-73.135157c0-51.011368-33.899789-90.677895-84.345263-98.627369a90.624 90.624 0 0 0-14.093474-1.104842c-49.340632 0-92.698947 39.666526-96.660211 88.387368-0.485053 6.278737-0.485053 11.533474-0.485052 15.764211v159.528421a192.619789 192.619789 0 0 1-51.954527-43.385263 20.992 20.992 0 0 0-32.14821 26.866526c10.213053 12.207158 21.665684 23.147789 33.953684 32.929684a101.995789 101.995789 0 0 0-61.709474 45.541053c-0.538947 0.916211-0.943158 1.832421-1.42821 2.694737a313.128421 313.128421 0 0 1-103.585684-232.933053zM826.206316 770.964211a262.090105 262.090105 0 0 1-3.907369 43.385263c-10.778947 63.191579-58.664421 110.538105-122.071579 121.451789-9.997474 1.697684-20.075789 3.179789-30.10021 4.823579h-42.576842c-11.425684-1.697684-22.959158-2.883368-34.304-4.904421-52.331789-9.566316-94.854737-34.896842-124.658527-79.548632a23625.997474 23625.997474 0 0 1-109.837473-166.426947 58.88 58.88 0 0 1-6.898527-15.521684c-6.790737-23.498105 7.033263-47.723789 30.154106-52.197053 3.341474-0.673684 6.602105-0.997053 9.701052-0.997052 14.039579 0 26.004211 6.332632 35.166316 18.216421 15.306105 19.752421 29.749895 40.151579 44.517053 60.281263 1.562947 2.128842 3.125895 4.284632 4.742737 6.386526 0.377263-0.188632 0.808421-0.269474 1.185684-0.485052V385.751579c0-3.584 0-7.114105 0.269474-10.671158 1.347368-16.572632 17.515789-30.612211 34.034526-30.61221 1.401263 0 2.883368 0.134737 4.311579 0.350315 19.536842 3.072 31.258947 16.626526 31.258947 36.567579 0.053895 55.915789 0 149.450105 0.080842 205.392842 0 2.937263 0.188632 5.955368 1.024 8.704 1.455158 4.554105 4.850526 6.952421 9.701053 7.329685h1.024a10.24 10.24 0 0 0 9.889684-6.467369 21.504 21.504 0 0 0 1.212632-8.650105c0-19.240421-0.053895-25.330526-0.053895-25.330526l-0.053895 17.893052 0.053895-25.330526c0-12.584421 4.257684-23.605895 14.982737-31.070316 3.961263-2.694737 8.650105-4.365474 12.988631-6.521263h14.147369c0.512 0.377263 0.889263 0.808421 1.42821 1.024 18.378105 6.332632 26.920421 18.243368 26.920421 37.537684l-0.080842 24.980211v-18.432 25.007158c0 1.832421-0.080842 3.584 0.134737 5.308631 0.754526 6.036211 5.389474 10.051368 11.264 10.051369l1.077895-0.026948c6.197895-0.538947 9.754947-4.796632 10.186105-12.422737V590.147368l0.026947-1.42821v-11.856842c0.269474-8.245895 2.290526-16.006737 7.599158-22.716632a35.112421 35.112421 0 0 1 39.154527-11.695158c14.551579 4.985263 23.821474 19.078737 23.821473 35.893895l-0.053894 25.034105-0.080842-18.485894v25.034105c0 2.155789 0 4.338526 0.215578 6.467368 0.700632 5.712842 4.419368 8.650105 9.701053 9.701053 0.538947 0.107789 1.077895 0.161684 1.616842 0.161684 4.203789 0 8.623158-2.937263 10.051369-7.114105a27.755789 27.755789 0 0 0 1.158736-8.704v-6.656 12.746105c0.080842 0 0.134737-3.826526 0.161685-14.874947 0.053895-6.117053 1.158737-12.665263 3.610947-18.270316a34.277053 34.277053 0 0 1 38.561684-19.321263c16.976842 3.691789 27.755789 18.108632 27.75579 36.810105-0.080842 101.564632 0.080842 68.446316-0.215579 170.037895zM305.987368 444.631579a20.965053 20.965053 0 0 0 15.872-25.034105 194.721684 194.721684 0 0 1 289.738106-209.650527 20.938105 20.938105 0 1 0 21.530947-35.947789 235.277474 235.277474 0 0 0-85.207579-30.666105c-128.808421-19.941053-249.936842 68.661895-269.904842 197.52421a235.816421 235.816421 0 0 0 2.964211 87.929263 20.965053 20.965053 0 0 0 25.007157 15.845053z" fill="#ffffff" p-id="8182"></path></svg>