<?xml version="1.0" standalone="no"?><!DOCTYPE svg PUBLIC "-//W3C//DTD SVG 1.1//EN" "http://www.w3.org/Graphics/SVG/1.1/DTD/svg11.dtd"><svg t="1622395667883" class="icon" viewBox="0 0 1024 1024" version="1.1" xmlns="http://www.w3.org/2000/svg" p-id="7321" xmlns:xlink="http://www.w3.org/1999/xlink" width="32" height="32"><defs><style type="text/css"></style></defs><path d="M953.6 249.6l-172.8-172.8c-12.8-6.4-19.2-12.8-25.6-12.8H121.6C89.6 64 64 89.6 64 121.6v780.8c0 32 25.6 57.6 57.6 57.6H896c32 0 57.6-25.6 57.6-57.6V268.8c6.4-6.4 0-19.2 0-19.2zM601.6 128h89.6v192c0 6.4-6.4 12.8-19.2 12.8h-70.4V128z m-64 0v211.2h-192c-6.4 0-19.2-6.4-19.2-19.2V128h211.2z m-256 768v-128c0-19.2 19.2-38.4 38.4-38.4h384c12.8 0 19.2 6.4 25.6 12.8s12.8 12.8 12.8 25.6v128H281.6zM896 896h-89.6v-128c0-25.6-12.8-51.2-32-70.4s-44.8-32-70.4-32H320c-57.6 0-102.4 44.8-102.4 102.4v128H128V128h134.4v192c0 44.8 38.4 76.8 83.2 76.8H672c44.8 0 83.2-38.4 83.2-76.8V147.2L896 281.6V896z" p-id="7322" fill="#ffffff"></path></svg>