<?xml version="1.0" standalone="no"?><!DOCTYPE svg PUBLIC "-//W3C//DTD SVG 1.1//EN" "http://www.w3.org/Graphics/SVG/1.1/DTD/svg11.dtd"><svg t="1622395559138" class="icon" viewBox="0 0 1024 1024" version="1.1" xmlns="http://www.w3.org/2000/svg" p-id="5430" xmlns:xlink="http://www.w3.org/1999/xlink" width="32" height="32"><defs><style type="text/css"></style></defs><path d="M906.221309 0H127.99736a127.99736 127.99736 0 0 0-127.99736 127.99736v583.667962a127.99736 127.99736 0 0 0 123.517452 127.99736H383.99208v106.237809H319.9934a11.519762 11.519762 0 0 0-10.879775 10.879775v57.598812A10.239789 10.239789 0 0 0 319.9934 1023.97888h383.99208a10.239789 10.239789 0 0 0 10.879776-10.879775v-57.598812a11.519762 11.519762 0 0 0-10.879776-10.879776h-63.99868v-107.517782h261.754602A127.99736 127.99736 0 0 0 1023.97888 712.305309V127.99736a127.99736 127.99736 0 0 0-117.757571-127.99736z m58.878786 584.947935V711.025335a58.878786 58.878786 0 0 1-58.238799 59.518773H127.99736a59.518772 59.518772 0 0 1-63.99868-58.238799V127.99736a59.518772 59.518772 0 0 1 63.99868-63.99868h778.223949a58.878786 58.878786 0 0 1 58.878786 58.878786v463.350443z" p-id="5431" fill="#ffffff"></path><path d="M717.425203 452.470668a31.99934 31.99934 0 0 0-40.959155 18.559617A165.116594 165.116594 0 0 1 556.148529 575.98812a167.036555 167.036555 0 0 1-127.99736-21.119564 168.316528 168.316528 0 1 1 202.875816-267.514483h3.199934l-19.199604 21.119565a19.199604 19.199604 0 0 0 14.07971 32.639327h87.678191a19.839591 19.839591 0 0 0 20.479578-21.759552l-10.239789-87.678191a19.199604 19.199604 0 0 0-33.9193-10.879776l-16.639657 17.919631a232.315208 232.315208 0 1 0-154.876806 404.471657 247.034905 247.034905 0 0 0 49.278984-3.199934 230.395248 230.395248 0 0 0 165.116594-146.556977 31.99934 31.99934 0 0 0-18.559617-40.959155z" p-id="5432" fill="#ffffff"></path></svg>